<?xml version="1.0" encoding="UTF-8" standalone="no"?>
<!-- Created with Inkscape (http://www.inkscape.org/) -->

<svg
   width="210mm"
   height="297mm"
   viewBox="0 0 210 297"
   version="1.1"
   id="svg5"
   inkscape:version="1.2.2 (b0a8486541, 2022-12-01)"
   sodipodi:docname="dessin.svg"
   xmlns:inkscape="http://www.inkscape.org/namespaces/inkscape"
   xmlns:sodipodi="http://sodipodi.sourceforge.net/DTD/sodipodi-0.dtd"
   xmlns="http://www.w3.org/2000/svg"
   xmlns:svg="http://www.w3.org/2000/svg">
  <sodipodi:namedview
     id="namedview7"
     pagecolor="#ffffff"
     bordercolor="#000000"
     borderopacity="0.25"
     inkscape:showpageshadow="2"
     inkscape:pageopacity="0.0"
     inkscape:pagecheckerboard="0"
     inkscape:deskcolor="#d1d1d1"
     inkscape:document-units="mm"
     showgrid="false"
     inkscape:zoom="0.72871773"
     inkscape:cx="396.58703"
     inkscape:cy="561.94598"
     inkscape:window-width="1920"
     inkscape:window-height="996"
     inkscape:window-x="0"
     inkscape:window-y="28"
     inkscape:window-maximized="1"
     inkscape:current-layer="layer1" />
  <defs
     id="defs2" />
  <g
     inkscape:label="Calque 1"
     inkscape:groupmode="layer"
     id="layer1">
    <path
       style="fill:#008000;stroke-width:0.264583"
       id="path654"
       d="m 103.28364,159.69987 c 0.18278,0.35537 0.38392,0.70187 0.54833,1.06609 0.77783,1.72313 1.38331,3.40936 1.95997,5.22571 1.16275,3.66242 2.09759,7.14524 2.90636,10.92675 0.56307,2.63275 1.00785,5.28943 1.51178,7.93415 2.08913,13.40471 3.10876,26.95523 3.49166,40.50977 0.0759,2.68485 0.078,5.37128 0.117,8.05692 0,0 2.86003,1.44904 2.86003,1.44904 v 0 c -0.50557,-16.24385 -1.31632,-32.49959 -3.5809,-48.6091 -1.45473,-8.42246 -2.82975,-17.03434 -6.2037,-24.94958 0,0 -3.61053,-1.60975 -3.61053,-1.60975 z" />
    <path
       style="fill:#008000;stroke-width:0.264583"
       id="path656"
       d="m 78.229306,243.72994 c 0.486333,-0.10413 0.967753,-0.23466 1.458999,-0.31239 5.698596,-0.90163 11.525287,-1.15156 17.276633,-1.41732 10.517962,-0.48601 10.078112,-0.37797 21.012852,-0.48549 11.01812,0.0142 22.00837,0.75088 32.94736,2.03101 3.11531,0.36456 6.21942,0.81928 9.32912,1.22892 0,0 -2.46995,-1.84321 -2.46995,-1.84321 v 0 c -3.08251,-0.38607 -6.16012,-0.81356 -9.24753,-1.15822 -10.93194,-1.22039 -21.90958,-1.93083 -32.91336,-1.96647 -11.19841,0.0507 -10.46919,-0.0359 -21.26128,0.32166 -5.934999,0.19661 -11.928176,0.36088 -17.830782,1.0857 -0.519845,0.0638 -1.032509,0.17657 -1.548764,0.26485 0,0 3.246702,2.25096 3.246702,2.25096 z" />
    <path
       style="fill:#ffff00;stroke-width:0.264583"
       id="path707"
       d="m 117.46046,106.12521 c -3.33811,-2.08769 -6.93514,-4.06914 -10.8781,-4.71493 -2.38957,-0.39137 -2.85037,-0.19331 -5.25553,0.0272 -0.93315,0.25119 -1.909824,0.37618 -2.799459,0.75356 -2.289397,0.97117 -5.081793,2.95662 -6.929038,4.52239 -2.329129,1.97423 -5.140076,4.78316 -6.636972,7.47139 -1.059069,1.90196 -1.684845,4.01467 -2.527271,6.022 -2.069695,6.56299 -3.578315,13.38343 -3.423504,20.31106 0.04681,2.09481 0.291155,4.18712 0.638188,6.25351 0.801865,4.77467 1.490247,5.95656 3.162152,10.30314 1.185256,2.23371 2.207135,4.56625 3.950007,6.45297 0.703119,0.76115 1.431136,1.59741 2.39192,1.98552 3.138842,1.26791 6.394336,2.33157 9.729647,2.91092 4.89305,0.84992 13.42012,0.0343 18.22032,-0.25572 2.9175,-0.4532 5.86672,-0.73555 8.75251,-1.35959 6.25833,-1.35334 12.70836,-3.58471 17.54072,-7.96056 2.65895,-2.40777 2.93546,-3.48592 4.52803,-6.46174 0.26532,-1.03927 0.73815,-2.04677 0.79597,-3.11782 0.14133,-2.61781 -0.82508,-5.36264 -1.95593,-7.6482 -2.14886,-4.34306 -5.33642,-7.88373 -8.51265,-11.46623 -3.5428,-3.65875 -7.25932,-7.15803 -11.18436,-10.40458 0,0 -3.53993,-1.42423 -3.53993,-1.42423 v 0 c 4.03547,3.23844 7.83491,6.7698 11.46342,10.45641 1.05038,1.16887 2.14842,2.2966 3.15114,3.50662 1.87706,2.26512 4.03465,5.17244 5.36681,7.82262 1.10997,2.20817 2.06955,4.86652 1.96648,7.40471 -0.0425,1.04681 -0.47847,2.03999 -0.7177,3.05998 -1.49621,2.93076 -1.75866,4.01637 -4.3097,6.40758 -4.6787,4.38555 -11.00826,6.66336 -17.15662,8.02247 -2.86237,0.63274 -5.79151,0.91246 -8.68726,1.36869 -24.79736,1.34913 5.51464,0.0356 -18.382627,0.0417 -1.223336,2.7e-4 -2.448544,0.75443 -3.639283,0.47391 -1.009526,-0.23783 -1.73223,-1.16737 -2.456326,-1.90992 -1.816727,-1.86306 -2.88881,-4.1954 -4.134328,-6.43262 -1.752428,-4.34708 -2.451172,-5.47654 -3.310284,-10.27155 -0.368187,-2.05497 -0.633315,-4.13749 -0.696463,-6.22423 -0.208579,-6.89237 1.261896,-13.68526 3.382973,-20.19676 0.865791,-1.96148 1.528466,-4.02583 2.597375,-5.88444 1.542761,-2.68254 4.274965,-5.39314 6.644259,-7.34818 1.992114,-1.64381 4.539795,-3.36394 6.980094,-4.32288 0.88878,-0.34925 1.85391,-0.45898 2.78087,-0.68847 2.39065,-0.17023 2.82353,-0.35368 5.18808,0.077 0.84489,0.15388 1.67255,0.39716 2.49162,0.6553 0.78013,0.24586 1.50816,1.0593 2.30015,0.85487 0.58382,-0.1507 -1.00689,-0.67088 -1.45649,-1.07265 -0.26248,-0.23455 0.59388,0.3781 0.89082,0.56715 0,0 3.67627,1.43271 3.67627,1.43271 z" />
    <path
       style="fill:#ffd5d5;stroke-width:0.264583"
       id="path819"
       d="m 77.874994,141.22145 c 0.515766,0.27281 2.00089,1.18543 1.547297,0.81842 -0.957355,-0.77459 -2.057035,-1.3548 -3.072064,-2.05211 -1.335286,-0.91732 -2.669612,-1.83676 -3.978431,-2.79146 -3.08655,-2.25144 -5.555255,-4.13491 -8.369176,-6.71725 -1.178113,-1.08116 -2.268691,-2.25399 -3.403039,-3.38098 -2.643624,-3.4077 -5.729084,-7.28506 -5.674476,-11.86676 0.02442,-2.05 0.491744,-2.64 1.279324,-4.45855 1.454009,-2.46714 3.354554,-4.62094 5.593278,-6.40179 0.382783,-0.30449 0.761754,-0.62074 1.186341,-0.86357 0.319376,-0.18266 0.685123,-0.26845 1.027684,-0.40268 1.044332,0.26163 2.041264,0.39485 2.844745,1.28622 0.325205,0.36078 -1.600795,-1.00093 -1.32846,-0.59874 0.429916,0.6349 1.240282,0.90216 1.849337,1.36798 1.613649,1.23417 1.520857,1.19612 2.956645,2.47284 0.354197,0.35684 0.726749,0.69635 1.06259,1.07052 0.484738,0.54005 1.656242,2.10095 2.022843,2.60474 1.585087,2.17824 3.021023,4.43652 4.435943,6.7273 0.434991,0.71216 0.869982,1.42432 1.30497,2.13648 0,0 3.433117,1.51697 3.433117,1.51697 v 0 c -0.444145,-0.71621 -0.888291,-1.43241 -1.332434,-2.14862 -1.39488,-2.27446 -2.797527,-4.53544 -4.334055,-6.7182 -0.249414,-0.35432 -1.606888,-2.22036 -1.97417,-2.64243 -0.337425,-0.38776 -0.718454,-0.7353 -1.077684,-1.10296 -1.475844,-1.32843 -3.174807,-2.82849 -4.832663,-3.90795 -1.687811,-1.09897 -3.410929,-2.1438 -5.146571,-3.16556 -0.589743,-0.34717 -1.177356,-0.72002 -1.825734,-0.93897 -0.410755,-0.1387 -0.863684,-0.0767 -1.295527,-0.11502 -0.349607,0.16568 -0.721585,0.29066 -1.048821,0.49704 -0.417955,0.26359 -0.794851,0.58821 -1.174147,0.90492 -2.232782,1.86431 -4.149214,4.06782 -5.632572,6.57446 -0.817808,1.88294 -1.311656,2.52136 -1.349597,4.6446 -0.08399,4.70001 3.082113,8.6692 5.771192,12.17887 1.145887,1.14111 2.248763,2.32711 3.437657,3.42334 2.809021,2.59009 5.238943,4.45918 8.310647,6.7289 0.648124,0.47891 5.689352,4.07333 6.792577,4.76596 1.659834,1.04208 3.370889,2.00027 5.056333,3.0004 0,0 -3.062899,-2.44636 -3.062899,-2.44636 z" />
    <path
       style="fill:#ffd5d5;stroke-width:0.264583"
       id="path821"
       d="m 93.242288,103.43249 c 0.496882,-4.269545 2.659776,-8.158192 5.42196,-11.392218 0.689832,-0.807669 1.482622,-1.521386 2.223942,-2.282076 0.80851,-0.570727 1.54218,-1.265965 2.42554,-1.71218 1.49199,-0.753657 3.32211,-1.11371 4.96471,-0.596635 0.8561,0.269494 1.80906,0.599363 2.34879,1.316471 0.22827,0.303303 -1.14708,0.0033 -1.07496,0.376013 0.21214,1.096301 1.13709,1.922124 1.70563,2.883186 1.16982,2.63407 2.11256,5.405302 2.46921,8.279109 0.13446,1.08345 0.18733,2.15163 -0.20194,3.19128 -0.12688,0.33885 -0.3771,0.61765 -0.56565,0.92647 -0.28751,0.21615 -0.57502,0.4323 -0.86253,0.64846 0,0 3.29072,2.07 3.29072,2.07 v 0 c 0.31209,-0.2571 0.62419,-0.5142 0.93629,-0.77129 0.20142,-0.35063 0.46827,-0.67109 0.60426,-1.0519 0.40004,-1.1202 0.3374,-2.2036 0.18107,-3.36917 -0.39111,-2.916176 -1.36002,-5.73242 -2.49873,-8.429529 -0.54901,-0.982562 -0.86236,-2.140757 -1.64703,-2.947686 -0.84449,-0.868447 -5.34616,-4.74132 -7.71325,-5.345599 -1.70141,-0.434343 -3.56561,0.03032 -5.06469,0.832969 -0.888194,0.475557 -1.628705,1.186376 -2.443055,1.779564 -0.745448,0.7762 -1.54105,1.507172 -2.236343,2.328605 -2.780469,3.284887 -4.993444,7.167655 -5.762929,11.433946 0,0 3.498985,1.83221 3.498985,1.83221 z" />
    <path
       style="fill:#ffd5d5;stroke-width:0.264583"
       id="path823"
       d="m 133.14177,128.46135 c 2.2241,-2.15129 4.955,-3.40912 7.83799,-4.45475 3.13782,-1.13805 5.23918,-1.89742 8.63471,-1.42489 1.38022,0.19207 2.65625,0.84378 3.98438,1.26567 0.0819,0.25235 0.16376,0.5047 0.24564,0.75705 0.8069,1.16641 1.87397,2.19052 2.42069,3.49922 1.67882,4.01864 0.7485,8.84424 -0.72736,12.74137 -0.42817,1.13061 -1.05321,2.17651 -1.57982,3.26477 -0.56535,0.83892 -1.13071,1.67784 -1.69606,2.51676 0,0 3.19341,1.86902 3.19341,1.86902 v 0 c 0.55684,-0.8634 1.11369,-1.72679 1.67054,-2.59018 0.52127,-1.11354 1.13772,-2.18731 1.56382,-3.34063 1.44439,-3.90957 2.42893,-8.98668 0.85606,-13.02765 -1.70216,-4.37312 -4.88254,-5.28189 -8.78746,-7.88374 -1.34571,-0.38648 -2.6462,-0.99922 -4.03711,-1.15945 -3.43004,-0.39513 -5.54929,0.39441 -8.72025,1.52101 -3.02431,1.0745 -5.74765,2.28482 -8.20772,4.3611 0,0 3.34854,2.08532 3.34854,2.08532 z" />
    <path
       style="fill:#ffd5d5;stroke-width:0.264583"
       id="path825"
       d="m 140.39083,170.69317 c 0.72968,2.71385 0.95672,5.6663 -0.22936,8.30339 -0.26892,0.5979 -0.68483,1.11812 -1.02724,1.67718 1.41658,2.19222 -2.90541,1.28284 -2.38471,0.64491 0.44219,-0.54175 1.94479,0.30331 2.06209,-0.38609 0.28105,-1.65177 -0.84877,-3.24428 -1.1644,-4.88979 -0.87684,-4.57132 -1.22878,-8.41594 -1.7623,-13.04743 -0.18672,-2.07584 -0.37344,-4.15167 -0.56015,-6.22751 0,0 -3.03062,-1.50898 -3.03062,-1.50898 v 0 c 0.19976,2.08474 0.39953,4.16949 0.59929,6.25424 0.50662,4.61204 0.86804,8.43233 1.59299,13.00189 0.25898,1.63244 0.0897,3.44169 0.91582,4.87327 1.02548,1.77694 2.78299,3.03794 4.38757,4.3164 0.37284,0.29706 0.96093,0.48134 1.3995,0.29449 0.57598,-0.24539 0.82241,-0.9442 1.23361,-1.4163 0.35578,-0.58685 0.78435,-1.13534 1.06736,-1.76055 1.2152,-2.6846 1.05235,-5.64238 0.47588,-8.45001 0,0 -3.57533,-1.67911 -3.57533,-1.67911 z" />
    <path
       style="fill:#ffd5d5;stroke-width:0.264583"
       id="path827"
       d="m 85.538436,170.0119 c -0.673415,0.73543 -0.855295,1.01841 -1.808737,1.59219 -1.704673,1.02589 -4.046826,1.89263 -6.023239,2.08838 -0.743686,0.0737 -1.494414,-0.0263 -2.241624,-0.0395 -0.635723,-0.34607 -1.752656,-0.33108 -1.907172,-1.03821 -0.116965,-0.53528 1.513316,0.269 1.621731,-0.26808 0.231527,-1.14698 -0.761494,-2.23388 -0.88174,-3.3978 -0.145798,-1.41126 -0.114122,-2.85148 0.09108,-4.25533 0.680898,-4.65817 1.545709,-5.35515 3.790469,-9.52661 1.054597,-1.41686 2.109195,-2.83373 3.163795,-4.25059 0,0 -2.992091,-1.7735 -2.992091,-1.7735 v 0 c -1.059135,1.43296 -2.118273,2.86591 -3.177408,4.29887 -0.882176,1.60399 -1.948106,3.11986 -2.646532,4.81196 -1.141952,2.76664 -1.73242,6.10859 -1.521611,9.1128 0.08337,1.18816 0.04833,2.5295 0.746729,3.49433 2.376511,3.28311 3.873021,3.71997 6.769229,5.01344 0.759667,-0.0112 1.524656,0.0569 2.278997,-0.0336 2.114272,-0.2536 4.35629,-1.09204 6.186082,-2.17684 0.986097,-0.58462 1.243513,-0.92293 1.981785,-1.67023 0,0 -3.429746,-1.98169 -3.429746,-1.98169 z" />
  </g>
</svg>
